<?xml version="1.0" encoding="UTF-8" standalone="no"?>
<svg xmlns:ffdec="https://www.free-decompiler.com/flash" xmlns:xlink="http://www.w3.org/1999/xlink" ffdec:objectType="shape" height="42.95px" width="50.7px" xmlns="http://www.w3.org/2000/svg">
  <g transform="matrix(1.0, 0.0, 0.0, 1.0, 0.0, 0.0)">
    <path d="M9.4 18.9 Q8.65 37.95 27.75 39.3 34.4 39.85 39.45 35.7 53.25 24.6 43.25 9.65 40.15 5.05 34.65 3.9 18.1 0.2 10.45 15.35 L5.55 11.2 3.25 13.65 Q1.4 15.8 3.5 17.3 7.8 18.7 9.4 18.9 M32.25 0.3 Q36.65 0.9 40.4 3.1 52.4 10.85 50.45 25.1 L49.95 27.65 48.95 30.35 Q38.55 47.95 19.05 40.95 12.25 38.4 8.65 31.85 L7.45 29.05 6.3 21.0 Q-4.25 18.3 2.9 10.25 L5.5 7.7 9.55 10.65 11.75 7.6 13.7 5.6 Q17.3 2.6 21.35 1.25 25.35 -0.15 29.85 0.05 L32.25 0.3" fill="#000000" fill-rule="evenodd" stroke="none"/>
    <path d="M10.45 15.35 Q18.1 0.2 34.65 3.9 40.15 5.05 43.25 9.65 53.25 24.6 39.45 35.7 34.4 39.85 27.75 39.3 8.65 37.95 9.4 18.9 L10.4 18.75 11.3 16.05 10.45 15.35 M35.25 28.2 Q32.35 35.4 24.8 37.15 L20.95 37.75 Q39.6 42.1 44.85 23.85 45.45 21.85 45.1 19.6 42.6 4.75 27.2 4.15 41.6 12.35 35.25 28.2" fill="#ff7f00" fill-rule="evenodd" stroke="none"/>
    <path d="M10.45 15.35 L11.3 16.05 10.4 18.75 9.4 18.9 Q7.8 18.7 3.5 17.3 1.4 15.8 3.25 13.65 L5.55 11.2 10.45 15.35 M35.25 28.2 Q41.6 12.35 27.2 4.15 42.6 4.75 45.1 19.6 45.45 21.85 44.85 23.85 39.6 42.1 20.95 37.75 L24.8 37.15 Q32.35 35.4 35.25 28.2" fill="#fc4128" fill-rule="evenodd" stroke="none"/>
  </g>
</svg>
