<?xml version="1.0" encoding="UTF-8" standalone="no"?>
<svg xmlns:ffdec="https://www.free-decompiler.com/flash" xmlns:xlink="http://www.w3.org/1999/xlink" ffdec:objectType="shape" height="36.4px" width="82.8px" xmlns="http://www.w3.org/2000/svg">
  <g transform="matrix(1.0, 0.0, 0.0, 1.0, 0.0, 0.0)">
    <path d="M60.55 10.55 L61.2 9.3 62.75 9.3 64.05 9.3 58.55 18.9 57.0 25.75 54.2 25.75 55.7 18.9 54.65 10.55 54.45 9.3 57.3 9.3 57.45 10.55 57.9 15.55 57.95 15.55 60.55 10.55 M22.85 10.55 L23.1 9.3 27.15 9.3 Q29.75 9.3 30.75 10.45 L30.85 10.55 Q31.7 11.65 31.15 14.15 30.6 16.75 29.1 17.9 27.6 19.05 25.0 19.0 L23.8 19.0 22.3 25.75 19.45 25.75 22.85 10.55 M35.25 10.55 L35.5 9.3 38.3 9.3 38.05 10.55 35.2 23.3 39.65 23.3 39.1 25.75 31.85 25.75 35.25 10.55 M47.05 10.55 L47.55 9.3 51.05 9.3 51.0 10.55 50.45 25.75 47.7 25.75 48.0 22.1 44.9 22.1 43.6 25.75 40.9 25.75 47.05 10.55 M67.05 3.25 L15.8 3.25 Q10.3 3.4 6.65 7.65 3.0 11.85 2.85 18.2 3.0 24.55 6.65 28.75 10.3 33.0 15.8 33.15 L67.05 33.15 Q72.55 33.0 76.2 28.75 79.85 24.55 80.0 18.2 79.85 11.85 76.2 7.65 72.55 3.4 67.05 3.25 M67.05 0.0 Q73.7 0.2 78.15 5.35 82.6 10.5 82.8 18.2 82.6 25.95 78.15 31.05 73.7 36.2 67.05 36.4 L15.75 36.4 Q9.05 36.2 4.6 31.05 0.15 25.95 0.0 18.2 0.15 10.5 4.6 5.35 9.05 0.2 15.75 0.0 L67.05 0.0 M26.5 11.65 L25.4 11.65 24.3 16.7 25.4 16.7 Q26.75 16.7 27.4 16.15 28.05 15.6 28.35 14.15 28.7 12.75 28.3 12.2 27.9 11.6 26.5 11.65 M48.15 19.65 L48.6 12.6 48.55 12.6 45.85 19.65 48.15 19.65" fill="#000000" fill-rule="evenodd" stroke="none"/>
    <path d="M77.55 19.9 L77.65 18.2 Q77.55 13.0 74.55 9.55 71.55 6.1 67.05 5.95 L15.75 5.95 Q11.25 6.1 8.25 9.55 5.25 13.0 5.15 18.2 5.25 23.4 8.25 26.85 11.25 30.35 15.75 30.45 L18.25 30.45 18.35 29.05 66.75 29.05 Q71.3 28.95 74.65 25.6 77.0 23.25 77.55 19.9 M67.05 3.25 Q72.55 3.4 76.2 7.65 79.85 11.85 80.0 18.2 79.85 24.55 76.2 28.75 72.55 33.0 67.05 33.15 L15.8 33.15 Q10.3 33.0 6.65 28.75 3.0 24.55 2.85 18.2 3.0 11.85 6.65 7.65 10.3 3.4 15.8 3.25 L67.05 3.25" fill="#669900" fill-rule="evenodd" stroke="none"/>
    <path d="M60.55 10.55 L57.95 15.55 57.9 15.55 57.45 10.55 60.55 10.55" fill="#ccff00" fill-rule="evenodd" stroke="none"/>
    <path d="M62.75 9.3 L61.2 9.3 60.55 10.55 57.45 10.55 57.3 9.3 54.45 9.3 54.65 10.55 51.0 10.55 51.05 9.3 47.55 9.3 47.05 10.55 38.05 10.55 38.3 9.3 35.5 9.3 35.25 10.55 30.85 10.55 30.75 10.45 Q29.75 9.3 27.15 9.3 L23.1 9.3 22.85 10.55 16.3 10.55 Q15.65 10.35 12.55 11.8 9.45 13.25 9.0 18.95 L6.65 18.95 Q6.95 12.75 10.2 10.3 13.45 7.85 16.25 7.85 L62.75 7.85 62.75 9.3" fill="#ffffff" fill-rule="evenodd" stroke="none"/>
    <path d="M54.65 10.55 L55.7 18.9 54.2 25.75 57.0 25.75 58.55 18.9 64.05 9.3 62.75 9.3 62.75 7.85 16.25 7.85 Q13.45 7.85 10.2 10.3 6.95 12.75 6.65 18.95 L9.0 18.95 Q9.45 13.25 12.55 11.8 15.65 10.35 16.3 10.55 L22.85 10.55 19.45 25.75 22.3 25.75 23.8 19.0 25.0 19.0 Q27.6 19.05 29.1 17.9 30.6 16.75 31.15 14.15 31.7 11.65 30.85 10.55 L35.25 10.55 31.85 25.75 39.1 25.75 39.65 23.3 35.2 23.3 38.05 10.55 47.05 10.55 40.9 25.75 43.6 25.75 44.9 22.1 48.0 22.1 47.7 25.75 50.45 25.75 51.0 10.55 54.65 10.55 M77.55 19.9 Q77.0 23.25 74.65 25.6 71.3 28.95 66.75 29.05 L18.35 29.05 18.25 30.45 15.75 30.45 Q11.25 30.35 8.25 26.85 5.25 23.4 5.15 18.2 5.25 13.0 8.25 9.55 11.25 6.1 15.75 5.95 L67.05 5.95 Q71.55 6.1 74.55 9.55 77.55 13.0 77.65 18.2 L77.55 19.9 M48.15 19.65 L45.85 19.65 48.55 12.6 48.6 12.6 48.15 19.65 M26.5 11.65 Q27.9 11.6 28.3 12.2 28.7 12.75 28.35 14.15 28.05 15.6 27.4 16.15 26.75 16.7 25.4 16.7 L24.3 16.7 25.4 11.65 26.5 11.65" fill="#e3fe61" fill-rule="evenodd" stroke="none"/>
  </g>
</svg>
