<?xml version="1.0" encoding="UTF-8" standalone="no"?>
<svg xmlns:ffdec="https://www.free-decompiler.com/flash" xmlns:xlink="http://www.w3.org/1999/xlink" ffdec:objectType="shape" height="36.4px" width="82.8px" xmlns="http://www.w3.org/2000/svg">
  <g transform="matrix(1.0, 0.0, 0.0, 1.0, 0.0, 0.0)">
    <path d="M78.15 31.05 Q73.7 36.2 67.05 36.4 L15.75 36.4 Q9.05 36.2 4.6 31.05 0.15 25.95 0.0 18.2 0.15 10.5 4.6 5.35 9.05 0.2 15.75 0.0 L67.05 0.0 Q73.7 0.2 78.15 5.35 82.6 10.5 82.8 18.2 82.6 25.95 78.15 31.05" fill="#000000" fill-rule="evenodd" stroke="none"/>
    <path d="M76.2 28.75 Q72.55 33.0 67.05 33.15 L15.8 33.15 Q10.3 33.0 6.65 28.75 3.0 24.55 2.85 18.2 3.0 11.85 6.65 7.65 10.3 3.4 15.8 3.25 L67.05 3.25 Q72.55 3.4 76.2 7.65 79.85 11.85 80.0 18.2 79.85 24.55 76.2 28.75" fill="#669900" fill-rule="evenodd" stroke="none"/>
    <path d="M74.55 9.55 Q77.55 13.0 77.65 18.2 77.55 23.4 74.55 26.85 71.55 30.35 67.05 30.45 L15.75 30.45 Q11.25 30.35 8.25 26.85 5.25 23.4 5.15 18.2 5.25 13.0 8.25 9.55 11.25 6.1 15.75 5.95 L67.05 5.95 Q71.55 6.1 74.55 9.55" fill="#ccff00" fill-rule="evenodd" stroke="none"/>
    <path d="M74.65 25.6 Q77.95 22.3 77.65 17.15 L78.5 17.75 Q78.4 23.55 75.05 27.35 71.75 31.2 66.75 31.35 L18.2 31.35 18.35 29.05 66.75 29.05 Q71.3 28.95 74.65 25.6" fill="#669900" fill-rule="evenodd" stroke="none"/>
    <path d="M62.75 7.85 L62.75 10.55 16.3 10.55 Q15.65 10.35 12.55 11.8 9.45 13.25 9.0 18.95 L6.65 18.95 Q6.95 12.75 10.2 10.3 13.45 7.85 16.25 7.85 L62.75 7.85" fill="#ffffff" fill-rule="evenodd" stroke="none"/>
    <path d="M23.1 9.3 L27.15 9.3 Q29.75 9.3 30.75 10.45 31.75 11.55 31.15 14.15 30.6 16.75 29.1 17.9 27.6 19.05 25.0 19.0 L23.8 19.0 22.3 25.75 19.45 25.75 23.1 9.3 M26.5 11.65 L25.4 11.65 24.3 16.7 25.4 16.7 Q26.75 16.7 27.4 16.15 28.05 15.6 28.35 14.15 28.7 12.75 28.3 12.2 27.9 11.6 26.5 11.65" fill="#000000" fill-rule="evenodd" stroke="none"/>
    <path d="M39.65 23.3 L39.1 25.75 31.85 25.75 35.5 9.3 38.3 9.3 35.2 23.3 39.65 23.3" fill="#000000" fill-rule="evenodd" stroke="none"/>
    <path d="M48.0 22.1 L44.9 22.1 43.6 25.75 40.9 25.75 47.55 9.3 51.05 9.3 50.45 25.75 47.7 25.75 48.0 22.1 M48.6 12.6 L48.55 12.6 45.85 19.65 48.15 19.65 48.6 12.6" fill="#000000" fill-rule="evenodd" stroke="none"/>
    <path d="M61.2 9.3 L64.05 9.3 58.55 18.9 57.0 25.75 54.2 25.75 55.7 18.9 54.45 9.3 57.3 9.3 57.9 15.55 57.95 15.55 61.2 9.3" fill="#000000" fill-rule="evenodd" stroke="none"/>
  </g>
</svg>
