<?xml version="1.0" encoding="UTF-8" standalone="no"?>
<svg xmlns:ffdec="https://www.free-decompiler.com/flash" xmlns:xlink="http://www.w3.org/1999/xlink" ffdec:objectType="shape" height="36.4px" width="82.8px" xmlns="http://www.w3.org/2000/svg">
  <g transform="matrix(1.0, 0.0, 0.0, 1.0, 0.0, 0.0)">
    <path d="M67.05 0.0 Q73.7 0.2 78.15 5.35 82.6 10.5 82.8 18.2 82.6 25.95 78.15 31.05 73.7 36.2 67.05 36.4 L15.75 36.4 Q9.05 36.2 4.6 31.05 0.15 25.95 0.0 18.2 0.15 10.5 4.6 5.35 9.05 0.2 15.75 0.0 L67.05 0.0 M76.2 7.65 Q72.55 3.4 67.05 3.25 L15.8 3.25 Q10.3 3.4 6.65 7.65 3.0 11.85 2.85 18.2 3.0 24.55 6.65 28.75 10.3 33.0 15.8 33.15 L67.05 33.15 Q72.55 33.0 76.2 28.75 79.85 24.55 80.0 18.2 79.85 11.85 76.2 7.65" fill="#000000" fill-rule="evenodd" stroke="none"/>
    <path d="M77.55 19.9 L77.65 18.2 Q77.55 13.0 74.55 9.55 71.55 6.1 67.05 5.95 L15.75 5.95 Q11.25 6.1 8.25 9.55 5.25 13.0 5.15 18.2 5.25 23.4 8.25 26.85 11.25 30.35 15.75 30.45 L18.25 30.45 18.35 29.05 66.75 29.05 Q71.3 28.95 74.65 25.6 77.0 23.25 77.55 19.9 M76.2 7.65 Q79.85 11.85 80.0 18.2 79.85 24.55 76.2 28.75 72.55 33.0 67.05 33.15 L15.8 33.15 Q10.3 33.0 6.65 28.75 3.0 24.55 2.85 18.2 3.0 11.85 6.65 7.65 10.3 3.4 15.8 3.25 L67.05 3.25 Q72.55 3.4 76.2 7.65" fill="#410281" fill-rule="evenodd" stroke="none"/>
    <path d="M62.75 9.65 Q62.25 9.85 61.85 10.15 L61.4 10.55 58.0 10.55 58.25 9.3 50.7 9.3 50.45 10.55 43.75 10.55 44.0 9.3 41.2 9.3 40.95 10.55 37.75 10.55 38.0 9.3 35.2 9.3 34.95 10.55 31.95 10.55 32.2 9.3 29.35 9.3 29.1 10.55 24.8 10.55 24.7 10.45 Q23.75 9.3 21.35 9.3 L17.4 9.3 17.15 10.55 16.3 10.55 Q15.65 10.35 12.55 11.8 9.45 13.25 9.0 18.95 L6.65 18.95 Q6.95 12.75 10.2 10.3 13.45 7.85 16.25 7.85 L62.75 7.85 62.75 9.65" fill="#8b65b2" fill-rule="evenodd" stroke="none"/>
    <path d="M61.4 10.55 L61.85 10.15 Q62.25 9.85 62.75 9.65 63.9 9.1 65.35 9.1 66.45 9.1 67.2 9.6 67.9 10.1 68.2 11.0 68.5 11.9 68.35 13.1 L65.6 13.4 Q65.75 12.35 65.35 11.95 65.0 11.55 64.5 11.55 63.8 11.55 63.35 12.0 62.9 12.4 62.75 13.15 62.55 14.0 63.0 14.7 L64.1 16.1 65.45 17.6 Q66.15 18.4 66.5 19.45 66.85 20.45 66.55 21.75 66.25 23.1 65.5 24.05 L63.6 25.5 61.15 25.95 Q59.85 25.95 59.05 25.35 58.3 24.7 58.0 23.7 57.75 22.65 57.95 21.45 L60.7 21.05 Q60.55 22.3 60.85 22.9 61.15 23.5 61.85 23.5 L63.15 23.15 63.85 22.0 Q64.0 21.05 63.6 20.3 L62.5 18.85 61.15 17.4 Q60.45 16.6 60.1 15.6 59.75 14.6 60.05 13.2 60.4 11.55 61.4 10.55 M17.15 10.55 L17.4 9.3 21.35 9.3 Q23.75 9.3 24.7 10.45 L24.8 10.55 Q25.6 11.65 25.05 14.15 L24.3 16.3 23.25 17.65 22.15 18.3 22.9 25.75 20.05 25.75 19.55 18.95 18.85 19.0 18.1 19.0 16.6 25.75 13.75 25.75 17.15 10.55 M29.1 10.55 L29.35 9.3 32.2 9.3 31.95 10.55 29.45 21.7 Q29.25 22.65 29.5 23.05 29.75 23.5 30.55 23.5 31.3 23.5 31.75 23.05 32.25 22.65 32.45 21.7 L34.95 10.55 35.2 9.3 38.0 9.3 37.75 10.55 35.3 21.6 Q34.8 23.75 33.4 24.85 32.05 25.95 30.0 25.95 27.95 25.95 27.05 24.85 26.2 23.75 26.65 21.6 L29.1 10.55 M40.95 10.55 L41.2 9.3 44.0 9.3 43.75 10.55 40.9 23.3 45.35 23.3 44.8 25.75 37.55 25.75 40.95 10.55 M50.45 10.55 L50.7 9.3 58.25 9.3 58.0 10.55 57.7 11.8 53.0 11.8 52.05 16.0 55.7 16.0 55.15 18.45 51.5 18.45 50.45 23.3 55.5 23.3 54.95 25.75 47.05 25.75 50.45 10.55 M22.2 12.2 Q21.85 11.6 20.7 11.65 L19.7 11.65 18.6 16.7 19.6 16.7 Q20.7 16.7 21.35 16.15 21.95 15.6 22.25 14.15 22.6 12.75 22.2 12.2" fill="#ffffff" fill-rule="evenodd" stroke="none"/>
    <path d="M62.75 9.65 L62.75 7.85 16.25 7.85 Q13.45 7.85 10.2 10.3 6.95 12.75 6.65 18.95 L9.0 18.95 Q9.45 13.25 12.55 11.8 15.65 10.35 16.3 10.55 L17.15 10.55 13.75 25.75 16.6 25.75 18.1 19.0 18.85 19.0 19.55 18.95 20.05 25.75 22.9 25.75 22.15 18.3 23.25 17.65 24.3 16.3 25.05 14.15 Q25.6 11.65 24.8 10.55 L29.1 10.55 26.65 21.6 Q26.2 23.75 27.05 24.85 27.95 25.95 30.0 25.95 32.05 25.95 33.4 24.85 34.8 23.75 35.3 21.6 L37.75 10.55 40.95 10.55 37.55 25.75 44.8 25.75 45.35 23.3 40.9 23.3 43.75 10.55 50.45 10.55 47.05 25.75 54.95 25.75 55.5 23.3 50.45 23.3 51.5 18.45 55.15 18.45 55.7 16.0 52.05 16.0 53.0 11.8 57.7 11.8 58.0 10.55 61.4 10.55 Q60.4 11.55 60.05 13.2 59.75 14.6 60.1 15.6 60.45 16.6 61.15 17.4 L62.5 18.85 63.6 20.3 Q64.0 21.05 63.85 22.0 L63.15 23.15 61.85 23.5 Q61.15 23.5 60.85 22.9 60.55 22.3 60.7 21.05 L57.95 21.45 Q57.75 22.65 58.0 23.7 58.3 24.7 59.05 25.35 59.85 25.95 61.15 25.95 L63.6 25.5 65.5 24.05 Q66.25 23.1 66.55 21.75 66.85 20.45 66.5 19.45 66.15 18.4 65.45 17.6 L64.1 16.1 63.0 14.7 Q62.55 14.0 62.75 13.15 62.9 12.4 63.35 12.0 63.8 11.55 64.5 11.55 65.0 11.55 65.35 11.95 65.75 12.35 65.6 13.4 L68.35 13.1 Q68.5 11.9 68.2 11.0 67.9 10.1 67.2 9.6 66.45 9.1 65.35 9.1 63.9 9.1 62.75 9.65 M31.95 10.55 L34.95 10.55 32.45 21.7 Q32.25 22.65 31.75 23.05 31.3 23.5 30.55 23.5 29.75 23.5 29.5 23.05 29.25 22.65 29.45 21.7 L31.95 10.55 M77.55 19.9 Q77.0 23.25 74.65 25.6 71.3 28.95 66.75 29.05 L18.35 29.05 18.25 30.45 15.75 30.45 Q11.25 30.35 8.25 26.85 5.25 23.4 5.15 18.2 5.25 13.0 8.25 9.55 11.25 6.1 15.75 5.95 L67.05 5.95 Q71.55 6.1 74.55 9.55 77.55 13.0 77.65 18.2 L77.55 19.9 M22.2 12.2 Q22.6 12.75 22.25 14.15 21.95 15.6 21.35 16.15 20.7 16.7 19.6 16.7 L18.6 16.7 19.7 11.65 20.7 11.65 Q21.85 11.6 22.2 12.2" fill="#915bc8" fill-rule="evenodd" stroke="none"/>
  </g>
</svg>
