<?xml version="1.0" encoding="UTF-8" standalone="no"?>
<svg xmlns:ffdec="https://www.free-decompiler.com/flash" xmlns:xlink="http://www.w3.org/1999/xlink" ffdec:objectType="frame" height="210.05px" width="622.6px" xmlns="http://www.w3.org/2000/svg">
  <g transform="matrix(1.0, 0.0, 0.0, 1.0, 299.95, 115.75)">
    <use ffdec:characterId="36" height="158.3" transform="matrix(1.0, 0.0, 0.0, 1.0, -299.95, -115.75)" width="622.6" xlink:href="#shape0"/>
    <clipPath id="clipPath0">
      <path d="M -95.7 -38.5 L -97 -38.3 L -97 -37.2 L -97 -34.8 L -97.02 -32.43 L -97.05 -30.08 L -97.09 -27.76 L -97.15 -25.46 L -97.23 -23.19 L -97.32 -20.94 L -97.43 -18.73 L -97.54 -16.53 L -97.68 -14.36 L -97.83 -12.22 L -97.99 -10.11 L -98.17 -8.02 L -98.37 -5.95 L -98.58 -3.91 L -98.8 -1.9 L -99.05 0.06 L -99.31 1.95 L -99.58 3.75 L -99.88 5.48 L -100.18 7.14 L -100.51 8.71 L -100.85 10.21 L -101.2 11.64 L -101.57 12.98 L -101.96 14.25 L -102.36 15.44 L -102.56 16.01 L -102.78 16.56 L -102.99 17.09 L -103.21 17.6 L -103.43 18.09 L -103.66 18.56 L -103.89 19.01 L -104.12 19.44 L -104.36 19.86 L -104.6 20.25 L -104.06 19.56 L -103.51 18.89 L -102.97 18.24 L -102.43 17.61 L -101.88 17.01 L -101.34 16.43 L -100.8 15.87 L -100.26 15.33 L -99.71 14.81 L -99.17 14.32 L -98.63 13.84 L -98.09 13.39 L -97.55 12.97 L -97.01 12.56 L -96.47 12.18 L -95.93 11.81 L -95.38 11.47 L -94.84 11.15 L -94.3 10.86 L -93.76 10.58 L -93.22 10.33 L -92.68 10.1 L -92.15 9.89 L -91.61 9.7 L -91.07 9.54 L -90.53 9.4 L -89.99 9.27 L -89.45 9.18 L -88.91 9.1 L -88.38 9.04 L -87.84 9.01 L -87.3 9 L -86.77 9.01 L -86.27 9.04 L -85.78 9.1 L -85.32 9.18 L -84.88 9.27 L -84.46 9.4 L -84.06 9.54 L -83.68 9.7 L -83.32 9.89 L -82.98 10.1 L -82.67 10.33 L -82.38 10.58 L -82.1 10.86 L -81.85 11.15 L -81.62 11.47 L -81.41 11.81 L -81.22 12.18 L -81.06 12.56 L -80.91 12.97 L -80.79 13.39 L -80.69 13.84 L -80.6 14.32 L -80.54 14.81 L -80.5 15.33 L -80.48 15.87 L -80.49 16.43 L -80.51 17.01 L -80.56 17.61 L -80.62 18.24 L -80.71 18.89 L -80.82 19.56 L -80.95 20.25 L -80.69 19.2 L -80.45 18.1 L -80.21 16.94 L -79.99 15.73 L -79.78 14.47 L -79.58 13.16 L -79.39 11.79 L -79.21 10.38 L -79.05 8.91 L -78.89 7.38 L -78.75 5.81 L -78.62 4.18 L -78.49 2.5 L -78.39 0.77 L -78.29 -1.01 L -78.2 -2.85 L -78.11 -5.43 L -78.04 -7.98 L -77.98 -10.5 L -77.95 -12.99 L -77.93 -15.44 L -77.94 -17.86 L -77.96 -20.25 L -78 -22.6 L -78.23 -22.8 L -78.46 -23.01 L -78.67 -23.22 L -78.88 -23.44 L -79.08 -23.66 L -79.27 -23.89 L -79.45 -24.13 L -79.62 -24.37 L -79.78 -24.62 L -79.94 -24.88 L -80.08 -25.14 L -80.22 -25.41 L -80.34 -25.68 L -80.46 -25.96 L -80.57 -26.25 L -80.68 -26.54 L -80.77 -26.84 L -80.85 -27.14 L -80.99 -27.77 L -81.1 -28.42 L -81.17 -29.1 L -81.2 -29.8 L -81.2 -30.52 L -81.17 -31.27 L -81.1 -32.05 L -80.5 -35 L -81.31 -35.06 L -82.11 -35.12 L -82.91 -35.2 L -83.71 -35.3 L -84.5 -35.4 L -85.3 -35.52 L -86.09 -35.65 L -86.88 -35.79 L -87.66 -35.94 L -88.45 -36.11 L -89.23 -36.28 L -90.01 -36.47 L -90.78 -36.67 L -91.56 -36.89 L -92.33 -37.11 L -93.1 -37.35 L -93.44 -37.46 L -93.77 -37.57 L -94.1 -37.7 L -94.43 -37.84 L -94.75 -37.99 L -95.07 -38.15 L -95.39 -38.32 L -95.7 -38.5 Z M -44.65 -20.6 L -45.26 -20.24 L -45.88 -19.92 L -46.52 -19.64 L -47.17 -19.39 L -47.85 -19.17 L -48.53 -19 L -49.23 -18.86 L -49.95 -18.75 L -50.98 -18.62 L -52.01 -18.5 L -53.03 -18.41 L -54.05 -18.33 L -55.07 -18.26 L -56.09 -18.22 L -57.1 -18.19 L -58.12 -18.18 L -58.98 -18.19 L -59.85 -18.21 L -60.71 -18.24 L -61.57 -18.29 L -62.43 -18.35 L -63.29 -18.42 L -64.15 -18.5 L -65 -18.6 L -65 -18.6 L -57.05 -2.85 L -55.3 0.77 L -54.47 2.5 L -53.69 4.18 L -52.94 5.81 L -52.22 7.38 L -51.54 8.91 L -50.9 10.38 L -50.29 11.79 L -49.72 13.16 L -49.19 14.47 L -48.69 15.73 L -48.22 16.94 L -47.8 18.1 L -47.41 19.2 L -47.05 20.25 L -47.21 19.56 L -47.34 18.89 L -47.45 18.24 L -47.54 17.61 L -47.62 17.01 L -47.67 16.43 L -47.69 15.87 L -47.7 15.33 L -47.69 14.81 L -47.66 14.32 L -47.6 13.84 L -47.53 13.39 L -47.43 12.97 L -47.31 12.56 L -47.17 12.18 L -47.01 11.81 L -46.83 11.47 L -46.63 11.15 L -46.41 10.86 L -46.16 10.58 L -45.9 10.33 L -45.61 10.1 L -45.31 9.89 L -44.98 9.7 L -44.63 9.54 L -44.26 9.4 L -43.87 9.27 L -43.46 9.18 L -43.02 9.1 L -42.57 9.04 L -42.1 9.01 L -41.6 9 L -41.1 9.01 L -40.59 9.04 L -40.08 9.1 L -39.58 9.18 L -39.07 9.27 L -38.56 9.4 L -38.05 9.54 L -37.53 9.7 L -37.02 9.89 L -36.51 10.1 L -35.99 10.33 L -35.47 10.58 L -34.95 10.86 L -34.43 11.15 L -33.91 11.47 L -33.39 11.81 L -32.86 12.18 L -32.34 12.56 L -31.81 12.97 L -31.28 13.39 L -30.75 13.84 L -30.22 14.32 L -29.69 14.81 L -29.16 15.33 L -28.63 15.87 L -28.09 16.43 L -27.55 17.01 L -27.01 17.61 L -26.48 18.24 L -25.93 18.89 L -25.39 19.56 L -24.85 20.25 L -25.09 19.86 L -25.34 19.44 L -25.57 19.01 L -25.81 18.56 L -26.04 18.09 L -26.26 17.6 L -26.48 17.09 L -26.7 16.56 L -26.92 16.01 L -27.13 15.44 L -27.54 14.25 L -27.93 12.98 L -28.31 11.64 L -28.68 10.21 L -29.03 8.71 L -29.36 7.14 L -29.68 5.48 L -29.98 3.75 L -30.27 1.95 L -30.54 0.06 L -30.8 -1.9 L -31.16 -4.95 L -31.49 -8.06 L -31.78 -11.23 L -32.05 -14.45 L -32.83 -14.55 L -33.62 -14.68 L -34.41 -14.84 L -35.21 -15.02 L -36.02 -15.24 L -36.84 -15.48 L -37.67 -15.75 L -38.5 -16.05 L -39.06 -16.27 L -39.6 -16.5 L -40.12 -16.74 L -40.61 -16.99 L -41.08 -17.25 L -41.52 -17.51 L -41.94 -17.78 L -42.34 -18.06 L -42.71 -18.35 L -43.06 -18.65 L -43.38 -18.95 L -43.68 -19.27 L -43.96 -19.59 L -44.21 -19.92 L -44.44 -20.25 L -44.65 -20.6 Z M 100.4 -31.15 L 95.9 -30.2 L 80.2 -29.75 L 80.15 -28.5 L 80.08 -24.62 L 79.98 -20.81 L 79.85 -17.06 L 79.69 -13.38 L 79.49 -9.76 L 79.26 -6.21 L 79 -2.72 L 78.7 0.7 L 78.54 2.36 L 78.37 3.96 L 78.2 5.5 L 78.02 6.98 L 77.83 8.41 L 77.63 9.78 L 77.42 11.09 L 77.21 12.34 L 76.99 13.53 L 76.77 14.66 L 76.53 15.74 L 76.29 16.76 L 76.04 17.72 L 75.79 18.62 L 75.52 19.46 L 75.25 20.25 L 75.66 19.33 L 76.09 18.45 L 76.54 17.61 L 77.01 16.81 L 77.5 16.05 L 78.01 15.33 L 78.54 14.64 L 78.81 14.32 L 79.09 14 L 79.37 13.69 L 79.66 13.39 L 79.95 13.11 L 80.25 12.83 L 80.55 12.56 L 80.86 12.3 L 81.17 12.05 L 81.48 11.81 L 81.81 11.58 L 82.13 11.36 L 82.47 11.15 L 82.8 10.95 L 83.14 10.76 L 83.49 10.58 L 83.84 10.41 L 84.2 10.25 L 84.92 9.96 L 85.62 9.7 L 86.33 9.49 L 87.02 9.31 L 87.71 9.18 L 88.39 9.08 L 89.07 9.02 L 89.74 9 L 90.4 9.02 L 91.06 9.08 L 91.7 9.18 L 92.35 9.31 L 92.98 9.49 L 93.61 9.7 L 94.23 9.96 L 94.85 10.25 L 95.15 10.41 L 95.45 10.58 L 95.73 10.76 L 96.01 10.95 L 96.28 11.15 L 96.54 11.36 L 96.79 11.58 L 97.03 11.81 L 97.27 12.05 L 97.5 12.3 L 97.72 12.56 L 97.93 12.83 L 98.13 13.11 L 98.32 13.39 L 98.51 13.69 L 98.69 14 L 98.86 14.32 L 99.02 14.64 L 99.17 14.98 L 99.31 15.33 L 99.45 15.68 L 99.58 16.05 L 99.7 16.43 L 99.81 16.81 L 99.91 17.21 L 100.01 17.61 L 100.09 18.03 L 100.17 18.45 L 100.3 19.33 L 100.4 20.25 L 100.33 18.62 L 100.27 16.76 L 100.22 14.66 L 100.18 12.34 L 100.14 9.78 L 100.12 6.98 L 100.1 3.96 L 100.1 0.7 L 100.35 -28.5 L 100.4 -31.15 Z M 51.1 -23.35 L 48 -23 L 26.3 -22.6 L 26.63 -22.11 L 26.96 -21.61 L 27.28 -21.09 L 27.6 -20.56 L 27.91 -20.01 L 28.22 -19.45 L 28.84 -18.29 L 29.44 -17.06 L 30.02 -15.78 L 30.59 -14.45 L 31.15 -13.05 L 30.72 -13 L 30.29 -12.93 L 29.85 -12.84 L 29.41 -12.73 L 28.96 -12.6 L 28.51 -12.45 L 28.05 -12.28 L 27.59 -12.09 L 27.12 -11.87 L 26.65 -11.64 L 26.17 -11.38 L 25.68 -11.11 L 25.2 -10.81 L 24.7 -10.5 L 24.2 -10.16 L 23.7 -9.8 L 23.19 -9.42 L 22.69 -9.01 L 22.2 -8.56 L 21.72 -8.08 L 21.24 -7.56 L 20.78 -7.01 L 20.32 -6.43 L 19.88 -5.81 L 19.44 -5.16 L 19 -4.48 L 18.58 -3.76 L 18.17 -3 L 17.76 -2.22 L 17.37 -1.39 L 16.98 -0.54 L 16.6 0.35 L 16.26 -0.21 L 15.92 -0.75 L 15.57 -1.29 L 15.21 -1.82 L 14.84 -2.34 L 14.46 -2.85 L 14.07 -3.36 L 13.67 -3.85 L 13.27 -4.34 L 12.85 -4.81 L 12.43 -5.28 L 12 -5.74 L 11.56 -6.2 L 11.11 -6.64 L 10.65 -7.07 L 10.19 -7.5 L 9.71 -7.92 L 9.23 -8.33 L 8.74 -8.73 L 8.24 -9.12 L 7.73 -9.5 L 7.21 -9.88 L 6.68 -10.24 L 6.15 -10.6 L 5.6 -10.95 L 5.05 -11.29 L 4.49 -11.62 L 3.92 -11.94 L 3.34 -12.26 L 2.75 -12.56 L 2.16 -12.86 L 1.55 -13.15 L 0.59 -13.59 L -0.4 -14.03 L -1.39 -14.45 L -2.41 -14.86 L -3.44 -15.26 L -4.48 -15.65 L -5.55 -16.03 L -6.62 -16.4 L -7.72 -16.76 L -8.83 -17.1 L -9.96 -17.44 L -11.11 -17.76 L -12.27 -18.08 L -13.45 -18.38 L -14.64 -18.67 L -15.85 -18.95 L -18.5 -18.5 L -19.1 -18.05 L -18.56 -17.47 L -18.04 -16.88 L -17.56 -16.28 L -17.1 -15.67 L -16.68 -15.05 L -16.28 -14.42 L -15.9 -13.79 L -15.56 -13.14 L -15.25 -12.48 L -14.96 -11.81 L -14.71 -11.13 L -14.48 -10.45 L -14.28 -9.75 L -14.11 -9.04 L -13.96 -8.33 L -13.85 -7.6 L -13.79 -7.15 L -13.75 -6.69 L -13.73 -6.23 L -13.71 -5.77 L -13.71 -5.31 L -13.73 -4.84 L -13.76 -4.36 L -13.8 -3.89 L -13.86 -3.41 L -13.93 -2.92 L -14.01 -2.44 L -14.11 -1.95 L -14.23 -1.45 L -14.35 -0.96 L -14.49 -0.45 L -14.65 0.05 L -14.82 0.56 L -15 1.07 L -15.2 1.58 L -15.41 2.1 L -15.64 2.63 L -15.88 3.15 L -16.13 3.68 L -16.4 4.21 L -16.68 4.75 L -16.98 5.29 L -17.29 5.83 L -17.61 6.38 L -17.95 6.93 L -18.3 7.48 L -19.05 8.6 L -18.24 8.17 L -17.44 7.77 L -16.65 7.4 L -15.87 7.06 L -15.09 6.74 L -14.33 6.45 L -13.57 6.19 L -12.82 5.96 L -12.08 5.75 L -11.34 5.57 L -10.62 5.42 L -9.9 5.3 L -9.2 5.2 L -8.5 5.13 L -7.81 5.09 L -7.12 5.08 L -6.69 5.08 L -6.25 5.1 L -5.82 5.13 L -5.4 5.17 L -4.97 5.22 L -4.55 5.28 L -4.14 5.36 L -3.72 5.45 L -3.32 5.54 L -2.91 5.65 L -2.51 5.77 L -2.11 5.91 L -1.71 6.05 L -1.32 6.2 L -0.93 6.37 L -0.55 6.55 L -0.06 6.79 L 0.44 7.04 L 0.95 7.31 L 1.46 7.6 L 1.98 7.9 L 2.5 8.22 L 3.03 8.55 L 3.57 8.9 L 4.65 9.65 L 5.77 10.46 L 6.9 11.33 L 8.06 12.26 L 9.25 13.26 L 10.45 14.32 L 11.69 15.44 L 12.94 16.63 L 14.22 17.88 L 15.52 19.19 L 16.85 20.56 L 18.2 22 L 38.85 2.2 L 41 0.16 L 43.12 -1.81 L 45.22 -3.7 L 47.3 -5.53 L 49.35 -7.28 L 51.38 -8.96 L 52.38 -9.77 L 53.38 -10.56 L 54.37 -11.34 L 55.35 -12.1 L 54.87 -13.64 L 54.37 -15.15 L 53.86 -16.61 L 53.34 -18.04 L 52.8 -19.42 L 52.25 -20.77 L 51.68 -22.08 L 51.1 -23.35 Z M -132.35 -50.8 L -132.35 -50.8 L -132.35 -50.8 L -129.3 -37.2 L -129.73 -35.36 L -130.16 -33.58 L -130.6 -31.86 L -131.03 -30.18 L -131.47 -28.56 L -131.9 -27 L -132.34 -25.48 L -132.77 -24.02 L -133.21 -22.62 L -133.65 -21.27 L -134.09 -19.97 L -134.53 -18.73 L -134.97 -17.54 L -135.41 -16.41 L -135.86 -15.33 L -136.3 -14.3 L -136.76 -13.31 L -137.25 -12.33 L -137.77 -11.36 L -138.32 -10.39 L -138.91 -9.43 L -139.52 -8.49 L -140.17 -7.54 L -140.85 -6.61 L -141.56 -5.69 L -142.3 -4.77 L -143.07 -3.87 L -143.88 -2.97 L -144.71 -2.07 L -145.57 -1.19 L -146.47 -0.32 L -147.4 0.55 L -148.11 -0.11 L -148.8 -0.78 L -149.47 -1.46 L -150.12 -2.14 L -150.75 -2.82 L -151.37 -3.51 L -151.96 -4.2 L -152.54 -4.9 L -153.09 -5.6 L -153.63 -6.31 L -154.15 -7.02 L -154.65 -7.74 L -155.13 -8.46 L -155.59 -9.18 L -156.03 -9.91 L -156.45 -10.65 L -158.25 -9.35 L -158.8 -9.08 L -159.37 -8.85 L -159.94 -8.65 L -160.52 -8.49 L -161.12 -8.36 L -161.72 -8.27 L -162.33 -8.22 L -162.95 -8.2 L -164.91 -8.19 L -167.84 -8.21 L -170.76 -8.26 L -173.68 -8.34 L -176.6 -8.45 L -176.6 -8.45 L -172.9 -2.4 L -172.34 -1.56 L -171.77 -0.73 L -171.17 0.1 L -170.57 0.93 L -169.94 1.75 L -169.3 2.56 L -168.64 3.37 L -167.96 4.18 L -167.27 4.98 L -166.56 5.78 L -165.83 6.58 L -165.09 7.36 L -164.33 8.15 L -163.55 8.93 L -162.76 9.7 L -161.95 10.48 L -161.12 11.24 L -160.28 12 L -159.42 12.76 L -158.54 13.51 L -157.65 14.26 L -156.74 15.01 L -155.81 15.75 L -154.86 16.48 L -153.9 17.21 L -152.92 17.94 L -151.93 18.66 L -150.92 19.38 L -149.89 20.09 L -148.84 20.8 L -147.78 21.5 L -146.7 22.2 L -145.63 21.5 L -144.58 20.8 L -143.55 20.09 L -142.53 19.38 L -141.53 18.66 L -140.54 17.94 L -139.57 17.21 L -138.62 16.48 L -137.69 15.74 L -136.77 15 L -135.86 14.26 L -134.97 13.51 L -134.1 12.75 L -133.25 11.99 L -132.41 11.23 L -131.59 10.46 L -130.78 9.69 L -129.99 8.91 L -129.22 8.13 L -128.46 7.34 L -127.72 6.55 L -127 5.76 L -126.29 4.96 L -125.6 4.15 L -124.92 3.34 L -124.26 2.53 L -123.62 1.71 L -122.99 0.89 L -122.38 0.06 L -121.79 -0.77 L -121.21 -1.61 L -120.65 -2.45 L -120.1 -3.3 L -119.55 -4.16 L -118.47 -5.94 L -117.39 -7.77 L -116.32 -9.67 L -115.26 -11.62 L -114.21 -13.64 L -113.17 -15.72 L -112.14 -17.86 L -111.11 -20.07 L -110.1 -22.33 L -109.09 -24.65 L -108.1 -27.04 L -107.11 -29.49 L -106.13 -32 L -105.16 -34.57 L -104.2 -37.2 L -104.85 -38.95 L -105.2 -39.08 L -105.54 -39.21 L -105.88 -39.36 L -106.21 -39.51 L -106.54 -39.67 L -106.85 -39.85 L -107.16 -40.03 L -107.47 -40.22 L -107.77 -40.42 L -108.06 -40.63 L -108.34 -40.85 L -108.62 -41.07 L -108.9 -41.31 L -109.16 -41.56 L -109.42 -41.81 L -109.68 -42.08 L -109.92 -42.35 L -110.16 -42.63 L -110.4 -42.92 L -110.62 -43.22 L -110.84 -43.53 L -111.06 -43.85 L -111.27 -44.18 L -111.47 -44.52 L -111.66 -44.87 L -111.85 -45.22 L -112.21 -45.96 L -112.54 -46.74 L -112.85 -47.55 L -112.85 -47.6 L -125.45 -47.9 L -125.95 -47.93 L -126.44 -47.98 L -126.93 -48.05 L -127.4 -48.14 L -127.86 -48.25 L -128.32 -48.38 L -128.76 -48.53 L -129.2 -48.7 L -129.63 -48.89 L -130.04 -49.1 L -130.45 -49.34 L -130.85 -49.59 L -131.24 -49.86 L -131.62 -50.15 L -131.99 -50.47 L -132.35 -50.8 Z M 154.85 -58.85 L 154.37 -58.39 L 153.88 -57.95 L 153.39 -57.52 L 152.89 -57.1 L 152.39 -56.69 L 151.89 -56.29 L 151.38 -55.9 L 150.87 -55.53 L 150.35 -55.17 L 149.83 -54.82 L 149.31 -54.48 L 148.78 -54.16 L 148.25 -53.84 L 147.71 -53.54 L 147.17 -53.25 L 146.62 -52.97 L 146.08 -52.71 L 145.52 -52.46 L 144.97 -52.21 L 144.4 -51.98 L 143.84 -51.76 L 143.27 -51.56 L 142.7 -51.36 L 142.12 -51.18 L 141.54 -51.01 L 140.95 -50.85 L 140.36 -50.71 L 139.77 -50.57 L 139.17 -50.45 L 138.57 -50.34 L 137.96 -50.24 L 137.35 -50.15 L 137.81 -49.32 L 138.24 -48.52 L 138.64 -47.75 L 139.01 -47.01 L 139.35 -46.31 L 139.67 -45.64 L 139.95 -45 L 140.2 -44.4 L 140.34 -44.02 L 140.47 -43.65 L 140.59 -43.27 L 140.69 -42.9 L 140.78 -42.52 L 140.86 -42.15 L 140.93 -41.77 L 140.98 -41.4 L 141.02 -41.02 L 141.05 -40.65 L 141.07 -40.27 L 141.08 -39.89 L 141.07 -39.52 L 141.05 -39.14 L 141.02 -38.76 L 140.98 -38.39 L 140.92 -38.01 L 140.85 -37.63 L 140.77 -37.26 L 140.68 -36.88 L 140.57 -36.5 L 140.45 -36.13 L 140.32 -35.75 L 140.18 -35.37 L 140.03 -34.99 L 139.86 -34.62 L 139.68 -34.24 L 139.49 -33.86 L 139.29 -33.48 L 139.07 -33.11 L 138.84 -32.73 L 138.6 -32.35 L 138.09 -31.57 L 137.53 -30.74 L 136.92 -29.85 L 136.26 -28.92 L 134.8 -26.91 L 133.14 -24.69 L 131.28 -22.27 L 129.23 -19.65 L 126.99 -16.82 L 124.55 -13.8 L 140.7 2.2 L 142.99 4.38 L 145.43 6.66 L 148.02 9.02 L 150.76 11.48 L 153.66 14.02 L 156.7 16.66 L 159.9 19.38 L 163.25 22.2 L 163.81 21.48 L 164.38 20.78 L 164.93 20.1 L 165.49 19.44 L 166.04 18.81 L 166.59 18.19 L 167.14 17.6 L 167.69 17.03 L 168.23 16.48 L 168.77 15.95 L 169.31 15.44 L 169.84 14.95 L 170.37 14.48 L 170.9 14.04 L 171.43 13.62 L 171.95 13.21 L 172.47 12.83 L 172.99 12.47 L 173.5 12.13 L 174.02 11.81 L 174.53 11.52 L 175.03 11.24 L 175.54 10.99 L 176.04 10.75 L 176.54 10.54 L 177.03 10.35 L 177.53 10.18 L 178.02 10.03 L 178.5 9.9 L 178.99 9.8 L 179.47 9.71 L 179.95 9.65 L 180.49 9.61 L 181.05 9.59 L 181.51 9.6 L 181.97 9.63 L 182.44 9.68 L 182.91 9.74 L 183.4 9.83 L 183.88 9.93 L 184.38 10.06 L 184.87 10.2 L 185.38 10.36 L 185.89 10.54 L 186.4 10.74 L 186.92 10.96 L 187.45 11.2 L 187.98 11.45 L 188.52 11.73 L 189.07 12.02 L 189.62 12.33 L 190.17 12.66 L 190.73 13.02 L 191.3 13.38 L 191.87 13.77 L 192.45 14.18 L 193.03 14.61 L 193.62 15.05 L 194.22 15.52 L 194.82 16 L 195.43 16.5 L 196.04 17.02 L 196.66 17.57 L 197.28 18.12 L 198.55 19.3 L 197.78 17.93 L 197.06 16.59 L 196.4 15.3 L 195.8 14.05 L 195.26 12.84 L 194.77 11.68 L 194.34 10.55 L 194.14 10 L 193.96 9.46 L 193.8 8.93 L 193.64 8.42 L 193.51 7.91 L 193.38 7.41 L 193.27 6.93 L 193.18 6.45 L 193.1 5.98 L 193.03 5.53 L 192.98 5.08 L 192.94 4.65 L 192.91 4.22 L 192.9 3.81 L 192.9 3.4 L 192.92 3.01 L 192.95 2.62 L 193 2.25 L 193.11 1.64 L 193.24 1.06 L 193.39 0.53 L 193.58 0.03 L 193.68 -0.2 L 193.79 -0.42 L 193.9 -0.64 L 194.02 -0.84 L 194.15 -1.03 L 194.28 -1.22 L 194.43 -1.39 L 194.57 -1.55 L 194.73 -1.71 L 194.89 -1.85 L 195.05 -1.98 L 195.23 -2.11 L 195.41 -2.22 L 195.59 -2.32 L 195.79 -2.42 L 195.99 -2.5 L 196.19 -2.58 L 196.4 -2.64 L 196.62 -2.7 L 196.85 -2.74 L 197.08 -2.78 L 197.32 -2.8 L 197.56 -2.82 L 197.82 -2.82 L 198.13 -2.81 L 198.46 -2.79 L 198.8 -2.75 L 199.15 -2.7 L 197.98 -3.32 L 196.84 -3.9 L 195.71 -4.44 L 194.61 -4.94 L 193.52 -5.4 L 192.45 -5.82 L 191.41 -6.2 L 190.39 -6.54 L 189.38 -6.84 L 188.4 -7.1 L 187.43 -7.32 L 186.49 -7.5 L 185.57 -7.64 L 184.66 -7.74 L 183.78 -7.8 L 182.92 -7.82 L 182.4 -7.81 L 181.89 -7.79 L 181.39 -7.75 L 180.9 -7.7 L 180.44 -7.64 L 179.98 -7.57 L 179.53 -7.48 L 179.07 -7.39 L 178.61 -7.27 L 178.16 -7.15 L 177.71 -7.01 L 177.25 -6.87 L 176.8 -6.7 L 176.35 -6.53 L 175.9 -6.34 L 175.45 -6.14 L 175 -5.93 L 174.55 -5.7 L 174.11 -5.46 L 173.66 -5.21 L 173.22 -4.95 L 172.77 -4.67 L 172.33 -4.38 L 171.89 -4.08 L 171.45 -3.76 L 171.01 -3.44 L 170.57 -3.09 L 170.13 -2.74 L 169.69 -2.37 L 169.25 -1.99 L 168.82 -1.6 L 168.38 -1.2 L 167.51 -0.35 L 166.65 0.55 L 165.72 -0.98 L 164.82 -2.43 L 163.97 -3.8 L 163.15 -5.08 L 162.36 -6.28 L 161.62 -7.4 L 160.91 -8.43 L 160.24 -9.38 L 159.6 -10.24 L 159.01 -11.02 L 158.45 -11.72 L 157.92 -12.33 L 157.44 -12.86 L 156.99 -13.31 L 156.57 -13.67 L 156.38 -13.82 L 156.2 -13.95 L 155.82 -14.19 L 155.43 -14.41 L 155.03 -14.58 L 154.63 -14.73 L 154.22 -14.85 L 153.8 -14.93 L 153.38 -14.98 L 152.96 -14.99 L 152.58 -14.98 L 152.19 -14.94 L 151.81 -14.88 L 151.42 -14.79 L 151.02 -14.68 L 150.62 -14.55 L 150.21 -14.39 L 149.8 -14.2 L 149.98 -14.94 L 150.17 -15.67 L 150.37 -16.38 L 150.59 -17.07 L 150.81 -17.75 L 151.04 -18.41 L 151.29 -19.05 L 151.54 -19.68 L 151.81 -20.29 L 152.08 -20.88 L 152.37 -21.46 L 152.67 -22.03 L 152.97 -22.57 L 153.29 -23.1 L 153.62 -23.62 L 153.96 -24.11 L 154.31 -24.59 L 154.67 -25.06 L 155.05 -25.51 L 155.43 -25.94 L 155.82 -26.35 L 156.23 -26.75 L 156.64 -27.14 L 157.07 -27.5 L 157.5 -27.85 L 157.95 -28.19 L 158.4 -28.51 L 158.87 -28.81 L 159.35 -29.09 L 159.84 -29.36 L 160.34 -29.61 L 160.85 -29.85 L 161.24 -30.01 L 161.64 -30.17 L 162.06 -30.31 L 162.5 -30.45 L 162.95 -30.57 L 163.43 -30.68 L 163.92 -30.78 L 164.42 -30.87 L 164.95 -30.95 L 165.49 -31.02 L 166.05 -31.08 L 166.63 -31.13 L 167.22 -31.16 L 167.83 -31.19 L 168.46 -31.21 L 169.11 -31.21 L 170.26 -31.2 L 171.46 -31.15 L 172.71 -31.07 L 174.02 -30.96 L 175.37 -30.82 L 176.78 -30.65 L 178.24 -30.44 L 179.74 -30.21 L 181.3 -29.94 L 182.91 -29.64 L 184.57 -29.32 L 186.29 -28.96 L 188.05 -28.56 L 189.87 -28.14 L 191.73 -27.69 L 193.65 -27.2 L 193.19 -27.39 L 192.75 -27.6 L 192.34 -27.85 L 191.94 -28.12 L 191.56 -28.41 L 191.2 -28.74 L 190.87 -29.09 L 190.55 -29.46 L 190.25 -29.87 L 189.98 -30.3 L 189.72 -30.76 L 189.49 -31.24 L 189.27 -31.75 L 189.08 -32.29 L 188.9 -32.86 L 188.75 -33.45 L 188.62 -34.06 L 188.5 -34.67 L 188.41 -35.28 L 188.34 -35.89 L 188.29 -36.5 L 188.25 -37.12 L 188.24 -37.73 L 188.25 -38.35 L 188.28 -38.97 L 188.33 -39.59 L 188.4 -40.21 L 188.49 -40.84 L 188.6 -41.46 L 188.73 -42.09 L 188.88 -42.72 L 189.05 -43.35 L 189.23 -43.97 L 189.44 -44.56 L 189.66 -45.14 L 189.9 -45.68 L 190.16 -46.21 L 190.44 -46.71 L 190.74 -47.18 L 191.06 -47.64 L 191.4 -48.07 L 191.76 -48.47 L 192.13 -48.85 L 192.53 -49.21 L 192.94 -49.54 L 193.38 -49.85 L 193.83 -50.14 L 194.3 -50.4 L 194.3 -50.4 L 192.77 -49.76 L 191.26 -49.16 L 189.79 -48.6 L 188.35 -48.08 L 186.94 -47.61 L 185.57 -47.17 L 184.22 -46.78 L 182.91 -46.43 L 181.63 -46.12 L 180.38 -45.85 L 179.16 -45.62 L 177.97 -45.44 L 176.82 -45.29 L 175.69 -45.19 L 174.6 -45.13 L 174.07 -45.11 L 173.54 -45.11 L 172.98 -45.11 L 172.43 -45.13 L 171.89 -45.16 L 171.36 -45.2 L 170.84 -45.26 L 170.32 -45.32 L 169.82 -45.4 L 169.33 -45.49 L 168.84 -45.6 L 168.36 -45.71 L 167.9 -45.84 L 167.44 -45.98 L 166.99 -46.13 L 166.55 -46.29 L 166.12 -46.46 L 165.7 -46.65 L 165.21 -46.88 L 164.73 -47.13 L 164.26 -47.38 L 163.8 -47.64 L 163.35 -47.91 L 162.91 -48.19 L 162.48 -48.48 L 162.06 -48.78 L 161.65 -49.09 L 161.25 -49.41 L 160.85 -49.74 L 160.47 -50.08 L 160.1 -50.42 L 159.73 -50.78 L 159.38 -51.15 L 159.04 -51.53 L 158.7 -51.91 L 158.38 -52.31 L 158.06 -52.71 L 157.76 -53.13 L 157.46 -53.55 L 157.18 -53.98 L 156.9 -54.43 L 156.63 -54.88 L 156.38 -55.34 L 156.13 -55.82 L 155.89 -56.3 L 155.66 -56.79 L 155.45 -57.29 L 155.24 -57.8 L 155.04 -58.32 L 154.85 -58.85 Z"/>
    </clipPath>
    <g clip-path="url(#clipPath0)">
      <use ffdec:characterId="38" height="150.9" transform="matrix(1.0, 0.0, 0.0, 1.0, -175.8, -63.6)" width="366.95" xlink:href="#shape1"/>
    </g>
    <use ffdec:characterId="39" height="144.55" transform="matrix(1.0, 0.0, 0.0, 1.0, -189.9, -50.25)" width="394.8" xlink:href="#shape2"/>
    <use ffdec:characterId="41" height="42.95" transform="matrix(1.0, 0.0, 0.0, 1.0, -23.9, 38.9)" width="50.7" xlink:href="#sprite0"/>
  </g>
  <defs>
    <g id="shape0" transform="matrix(1.0, 0.0, 0.0, 1.0, 299.95, 115.75)">
      <path d="M-104.6 20.25 L-108.15 18.1 Q-101.95 -7.0 -101.35 -32.8 -112.7 5.75 -146.75 27.0 -179.65 6.25 -191.6 -30.7 -187.45 4.25 -171.0 35.55 -182.8 24.15 -196.2 16.3 L-197.5 17.5 Q-204.25 25.55 -197.35 34.65 -221.75 6.75 -218.1 -30.2 -227.45 -11.05 -228.0 10.3 -228.35 0.55 -236.45 -4.0 -244.7 -0.05 -244.95 10.35 -248.2 -10.25 -254.95 -29.8 -252.25 5.35 -273.5 33.3 -268.8 24.25 -273.15 15.35 -289.35 20.15 -299.95 33.65 L-298.15 29.85 -296.55 25.95 Q-270.9 -38.7 -282.85 -107.45 -277.0 -96.55 -267.05 -91.05 -257.7 -101.95 -262.45 -115.75 L-236.65 -50.95 Q-224.55 -84.45 -205.6 -110.95 -211.4 -100.35 -207.6 -89.1 -191.8 -94.2 -181.8 -107.35 -196.2 -75.7 -192.6 -41.25 -180.75 -79.55 -147.1 -101.4 -113.25 -79.8 -101.35 -41.5 -101.85 -76.05 -112.7 -108.85 -104.45 -91.7 -87.2 -88.85 -84.9 -99.75 -87.05 -110.65 -73.25 -78.65 -56.0 -48.2 -61.05 -79.9 -45.7 -108.0 -47.75 -99.15 -45.1 -90.85 -26.8 -88.8 -17.8 -105.6 -30.2 -66.4 -28.15 -25.45 -3.05 -23.85 15.95 -7.45 19.65 -12.7 25.4 -15.5 L23.5 -19.4 Q21.7 -23.15 17.95 -24.55 L13.3 -21.45 Q-15.9 -35.95 -26.05 -66.8 L-19.45 -68.15 Q-10.95 -87.0 2.95 -102.35 22.15 -76.85 48.75 -94.9 L45.0 -102.85 Q52.35 -95.7 62.25 -92.35 L65.5 -91.25 Q103.1 -78.15 133.45 -102.45 L128.3 -91.15 Q121.25 -75.25 135.0 -77.95 L128.5 -67.8 Q142.4 -88.25 161.15 -102.85 181.2 -78.3 205.0 -100.55 L203.25 -104.1 Q217.5 -92.3 236.1 -90.3 L237.4 -90.35 Q254.4 -91.9 258.4 -109.05 270.9 -76.05 303.2 -61.55 282.45 -49.55 283.15 -25.95 L279.35 -26.1 277.05 -24.8 Q282.9 -12.3 294.25 -4.5 315.4 -4.9 317.8 16.2 L313.85 13.65 Q310.7 11.8 308.6 13.25 314.0 23.7 322.65 31.55 310.7 22.5 296.55 17.65 295.05 23.95 297.55 30.05 292.3 19.5 282.95 12.65 278.5 27.25 279.7 42.55 L248.35 -21.8 241.75 -22.15 Q240.65 5.4 250.7 31.2 246.55 25.1 241.55 19.85 L240.3 18.8 Q219.95 5.25 204.95 25.2 L207.5 30.15 203.35 26.85 197.65 33.3 201.55 25.5 Q180.9 4.2 163.85 28.0 140.15 8.6 119.0 -13.5 L124.4 -20.05 Q144.8 -43.0 123.8 -63.2 115.2 -57.0 105.2 -60.95 L104.55 20.1 96.1 20.45 Q95.65 18.75 94.15 17.6 84.9 10.15 79.2 21.65 L75.2 20.3 71.25 18.9 Q75.95 -0.65 76.25 -20.95 76.6 -41.7 74.6 -62.5 58.15 -61.4 47.1 -72.7 45.7 -74.15 44.9 -76.05 L49.2 -75.4 52.35 -75.35 53.4 -75.85 53.9 -76.0 Q54.8 -79.5 53.4 -83.3 L49.55 -93.1 Q37.8 -75.55 51.75 -63.45 54.05 -61.55 56.75 -60.6 47.4 -55.75 36.75 -56.2 25.15 -57.15 17.9 -66.45 16.55 -63.0 13.85 -60.75 12.55 -59.6 10.85 -59.05 11.6 -54.85 16.7 -54.2 18.75 -53.8 20.8 -54.6 L24.35 -55.85 Q52.0 -40.45 60.1 -10.6 38.0 7.5 18.05 27.8 6.15 9.1 -12.9 10.75 -15.0 11.15 -17.0 12.1 L-22.6 6.4 Q-15.4 -2.15 -20.35 -11.7 -23.0 -16.9 -27.95 -20.25 -27.3 -0.55 -21.35 18.05 L-24.9 20.3 Q-34.0 -2.1 -33.65 -26.75 L-33.2 -51.85 Q-32.7 -74.05 -25.35 -94.6 -28.3 -89.1 -33.85 -86.05 -36.3 -84.75 -39.25 -84.35 L-45.2 -84.65 Q-50.15 -86.4 -49.35 -92.3 L-50.7 -83.95 Q-55.25 -55.95 -48.7 -29.3 -51.3 -31.85 -53.05 -34.75 -70.35 -63.25 -82.7 -94.2 -80.95 -89.55 -83.65 -85.7 -84.7 -84.25 -86.25 -83.75 -88.15 -83.0 -90.15 -83.35 -99.8 -85.8 -105.05 -94.6 -96.9 -75.8 -96.65 -55.1 L-96.35 -19.9 Q-96.25 1.2 -104.6 20.25 -92.15 2.45 -80.75 16.75 -80.5 17.1 -80.5 17.65 -72.3 -14.15 -81.3 -45.0 -59.5 -15.0 -47.1 20.3 L-51.1 21.4 Q-59.2 0.05 -70.5 -19.95 L-73.9 -26.15 Q-73.25 -8.55 -74.75 9.1 -75.25 15.3 -76.85 21.3 L-85.05 19.25 Q-83.7 14.95 -85.85 13.3 -88.15 12.35 -92.5 14.5 -96.85 16.65 -101.05 22.45 L-104.6 20.25 M153.8 -62.45 L154.6 -62.15 Q161.45 -62.1 161.95 -69.0 L165.4 -76.25 Q180.5 -60.85 199.15 -71.65 188.5 -82.45 199.75 -93.65 178.3 -75.7 160.0 -97.05 143.3 -81.1 129.05 -62.85 150.7 -36.35 124.5 -13.8 142.75 5.4 163.2 22.2 179.3 2.05 198.5 19.3 188.5 7.8 199.1 -2.7 181.65 -13.2 166.6 0.55 162.95 -12.35 149.75 -14.2 165.15 -40.55 193.6 -27.2 183.35 -39.1 194.25 -50.4 167.9 -36.45 153.8 -62.45 M4.3 -64.0 Q15.0 -62.45 16.3 -73.65 L16.35 -74.85 Q27.85 -57.6 48.1 -61.25 34.5 -73.55 44.45 -89.25 20.35 -74.65 2.15 -96.15 -5.15 -76.9 -20.35 -63.8 -10.75 -38.6 13.0 -26.5 28.6 -28.95 31.15 -13.05 20.55 -9.95 16.6 0.35 2.05 -17.95 -21.35 -20.1 -8.15 -6.7 -19.05 8.55 4.6 0.85 18.15 21.95 L55.3 -12.1 Q47.4 -38.2 23.6 -51.4 7.6 -47.5 4.3 -64.0 M75.2 20.3 Q87.9 3.15 99.6 18.75 L100.35 20.1 101.6 -72.95 Q108.65 -57.0 123.85 -68.75 124.4 -69.1 124.8 -69.6 126.2 -71.1 127.1 -72.95 118.45 -79.85 126.55 -93.2 95.2 -72.5 60.2 -89.4 L57.15 -91.0 51.25 -94.6 Q63.25 -81.4 53.35 -72.95 52.45 -72.2 50.95 -72.95 65.75 -59.85 76.65 -70.1 77.1 -70.5 77.15 -71.25 85.4 -25.15 75.2 20.3 M161.3 -60.3 L159.7 -58.3 Q177.85 -42.5 200.2 -54.6 L205.2 -57.4 Q186.0 -40.75 201.0 -20.7 176.0 -35.3 155.75 -18.65 163.85 -14.25 167.55 -5.85 188.35 -18.5 206.75 -2.5 197.0 1.4 198.9 12.35 199.75 17.35 203.2 21.4 227.25 -35.35 207.6 -93.55 L205.5 -99.4 Q192.5 -84.25 206.1 -74.15 207.55 -73.05 209.4 -72.45 188.55 -56.2 165.85 -69.9 164.4 -64.7 161.3 -60.3 M239.3 -50.25 Q239.8 -56.2 239.1 -62.15 238.45 -68.1 236.8 -70.25 239.95 -67.45 246.55 -67.05 253.1 -66.6 254.6 -69.3 258.75 -62.7 263.3 -59.3 L268.2 -55.9 Q267.65 -55.9 264.25 -52.9 260.6 -49.7 257.3 -40.65 256.2 -43.45 248.45 -44.15 240.7 -44.8 236.95 -42.2 238.8 -44.3 239.3 -50.25 M230.55 -85.75 Q220.25 -87.45 210.75 -95.2 218.2 -84.55 220.25 -67.75 222.25 -50.9 220.55 -32.8 218.8 -14.75 215.05 -0.25 211.4 13.6 207.4 19.65 215.4 8.4 224.35 5.55 233.45 2.65 242.65 15.9 237.1 1.0 236.95 -9.45 236.85 -19.9 238.05 -26.5 L242.2 -26.1 248.7 -25.8 Q251.55 -26.75 259.05 -13.3 266.6 0.15 276.9 26.5 278.0 22.25 278.35 15.35 278.7 8.45 281.6 7.3 284.45 6.15 293.0 19.2 287.75 8.25 293.1 9.65 298.25 11.0 312.4 22.35 301.25 12.9 302.1 8.5 303.0 3.95 314.2 12.0 309.1 3.0 303.45 0.15 297.85 -2.7 293.55 0.45 281.45 -9.95 275.5 -19.1 269.55 -28.3 278.25 -29.55 276.75 -34.95 279.65 -42.5 282.55 -50.0 295.95 -61.0 281.1 -69.5 270.8 -78.55 260.5 -87.6 258.2 -94.75 256.3 -89.3 248.55 -86.65 240.8 -84.0 230.55 -85.75 M253.35 -63.7 L243.25 -63.4 243.3 -48.2 255.25 -46.95 261.25 -55.75 253.35 -63.7 M-277.95 -94.35 Q-265.0 -34.8 -290.6 20.3 -277.05 3.75 -268.35 19.6 -252.25 -12.75 -261.05 -47.9 -245.5 -29.05 -242.7 -4.6 -236.65 -14.15 -230.05 -5.65 L-229.3 -4.6 Q-228.5 -30.35 -209.55 -47.9 -221.55 -12.55 -203.8 20.3 -205.4 15.95 -203.9 11.4 -190.65 10.2 -181.8 20.3 -210.0 -35.25 -191.05 -94.6 -198.9 -82.3 -212.85 -86.8 L-212.7 -92.85 -236.05 -41.0 Q-249.65 -66.75 -258.4 -94.6 -264.3 -78.75 -276.55 -92.6 L-277.95 -94.35 M-189.6 -37.2 Q-181.8 -15.9 -172.95 -2.45 -164.15 11.0 -146.75 22.15 -129.55 11.0 -120.7 -2.45 -111.9 -15.9 -104.25 -37.2 -112.05 -58.4 -120.95 -71.9 -129.8 -85.4 -147.1 -96.55 -164.4 -85.4 -173.2 -71.9 -181.95 -58.4 -189.6 -37.2 M-146.45 -69.1 L-149.55 -64.65 Q-168.45 -34.35 -147.45 -5.3 -138.25 -16.15 -135.75 -30.05 -131.8 -52.3 -146.45 -69.1 M-146.4 -74.9 Q-129.75 -58.55 -130.9 -35.4 -132.0 -14.0 -147.45 0.5 -166.75 -18.45 -161.7 -45.1 -158.4 -62.25 -146.4 -74.9 M-24.9 20.3 L-28.4 22.45 Q-32.75 16.6 -36.85 14.5 -40.95 12.4 -42.75 13.2 -44.4 14.25 -43.0 19.15 L-47.1 20.3 Q-49.75 9.05 -41.65 9.05 -33.6 9.05 -24.9 20.3" fill="#ccff00" fill-rule="evenodd" stroke="none"/>
      <path d="M-104.6 20.25 Q-96.25 1.2 -96.35 -19.9 L-96.65 -55.1 Q-96.9 -75.8 -105.05 -94.6 -99.8 -85.8 -90.15 -83.35 -88.15 -83.0 -86.25 -83.75 -84.7 -84.25 -83.65 -85.7 -80.95 -89.55 -82.7 -94.2 -70.35 -63.25 -53.05 -34.75 -51.3 -31.85 -48.7 -29.3 -55.25 -55.95 -50.7 -83.95 L-49.35 -92.3 Q-50.15 -86.4 -45.2 -84.65 L-39.25 -84.35 Q-36.3 -84.75 -33.85 -86.05 -28.3 -89.1 -25.35 -94.6 -32.7 -74.05 -33.2 -51.85 L-33.65 -26.75 Q-34.0 -2.1 -24.9 20.3 -33.6 9.05 -41.65 9.05 -49.75 9.05 -47.1 20.3 -59.5 -15.0 -81.3 -45.0 -72.3 -14.15 -80.5 17.65 -80.5 17.1 -80.75 16.75 -92.15 2.45 -104.6 20.25 M75.2 20.3 Q85.4 -25.15 77.15 -71.25 77.1 -70.5 76.65 -70.1 65.75 -59.85 50.95 -72.95 52.45 -72.2 53.35 -72.95 63.25 -81.4 51.25 -94.6 L57.15 -91.0 60.2 -89.4 Q95.2 -72.5 126.55 -93.2 118.45 -79.85 127.1 -72.95 126.2 -71.1 124.8 -69.6 124.4 -69.1 123.85 -68.75 108.65 -57.0 101.6 -72.95 L100.35 20.1 99.6 18.75 Q87.9 3.15 75.2 20.3 M4.3 -64.0 Q7.6 -47.5 23.6 -51.4 47.4 -38.2 55.3 -12.1 L18.15 21.95 Q4.6 0.85 -19.05 8.55 -8.15 -6.7 -21.35 -20.1 2.05 -17.95 16.6 0.35 20.55 -9.95 31.15 -13.05 28.6 -28.95 13.0 -26.5 -10.75 -38.6 -20.35 -63.8 -5.15 -76.9 2.15 -96.15 20.35 -74.65 44.45 -89.25 34.5 -73.55 48.1 -61.25 27.85 -57.6 16.35 -74.85 L16.3 -73.65 Q15.0 -62.45 4.3 -64.0 M153.8 -62.45 Q167.9 -36.45 194.25 -50.4 183.35 -39.1 193.6 -27.2 165.15 -40.55 149.75 -14.2 162.95 -12.35 166.6 0.55 181.65 -13.2 199.1 -2.7 188.5 7.8 198.5 19.3 179.3 2.05 163.2 22.2 142.75 5.4 124.5 -13.8 150.7 -36.35 129.05 -62.85 143.3 -81.1 160.0 -97.05 178.3 -75.7 199.75 -93.65 188.5 -82.45 199.15 -71.65 180.5 -60.85 165.4 -76.25 L161.95 -69.0 Q161.45 -62.1 154.6 -62.15 L153.8 -62.45 M230.55 -85.75 Q240.8 -84.0 248.55 -86.65 256.3 -89.3 258.2 -94.75 260.5 -87.6 270.8 -78.55 281.1 -69.5 295.95 -61.0 282.55 -50.0 279.65 -42.5 276.75 -34.95 278.25 -29.55 269.55 -28.3 275.5 -19.1 281.45 -9.95 293.55 0.45 297.85 -2.7 303.45 0.15 309.1 3.0 314.2 12.0 303.0 3.95 302.1 8.5 301.25 12.9 312.4 22.35 298.25 11.0 293.1 9.65 287.75 8.25 293.0 19.2 284.45 6.15 281.6 7.3 278.7 8.45 278.35 15.35 278.0 22.25 276.9 26.5 266.6 0.15 259.05 -13.3 251.55 -26.75 248.7 -25.8 L242.2 -26.1 238.05 -26.5 Q236.85 -19.9 236.95 -9.45 237.1 1.0 242.65 15.9 233.45 2.65 224.35 5.55 215.4 8.4 207.4 19.65 211.4 13.6 215.05 -0.25 218.8 -14.75 220.55 -32.8 222.25 -50.9 220.25 -67.75 218.2 -84.55 210.75 -95.2 220.25 -87.45 230.55 -85.75 M239.3 -50.25 Q238.8 -44.3 236.95 -42.2 240.7 -44.8 248.45 -44.15 256.2 -43.45 257.3 -40.65 260.6 -49.7 264.25 -52.9 267.65 -55.9 268.2 -55.9 L263.3 -59.3 Q258.75 -62.7 254.6 -69.3 253.1 -66.6 246.55 -67.05 239.95 -67.45 236.8 -70.25 238.45 -68.1 239.1 -62.15 239.8 -56.2 239.3 -50.25 M-277.95 -94.35 L-276.55 -92.6 Q-264.3 -78.75 -258.4 -94.6 -249.65 -66.75 -236.05 -41.0 L-212.7 -92.85 -212.85 -86.8 Q-198.9 -82.3 -191.05 -94.6 -210.0 -35.25 -181.8 20.3 -190.65 10.2 -203.9 11.4 -205.4 15.95 -203.8 20.3 -221.55 -12.55 -209.55 -47.9 -228.5 -30.35 -229.3 -4.6 L-230.05 -5.65 Q-236.65 -14.15 -242.7 -4.6 -245.5 -29.05 -261.05 -47.9 -252.25 -12.75 -268.35 19.6 -277.05 3.75 -290.6 20.3 -265.0 -34.8 -277.95 -94.35 M-189.6 -37.2 Q-181.95 -58.4 -173.2 -71.9 -164.4 -85.4 -147.1 -96.55 -129.8 -85.4 -120.95 -71.9 -112.05 -58.4 -104.25 -37.2 -111.9 -15.9 -120.7 -2.45 -129.55 11.0 -146.75 22.15 -164.15 11.0 -172.95 -2.45 -181.8 -15.9 -189.6 -37.2 M-146.4 -74.9 Q-158.4 -62.25 -161.7 -45.1 -166.75 -18.45 -147.45 0.5 -132.0 -14.0 -130.9 -35.4 -129.75 -58.55 -146.4 -74.9" fill="#669900" fill-rule="evenodd" stroke="none"/>
    </g>
    <g id="shape1" transform="matrix(1.0, 0.0, 0.0, 1.0, -0.05, 0.0)">
      <path d="M329.4 46.9 Q329.85 50.05 334.85 52.9 339.8 55.7 354.0 55.75 331.65 67.0 329.65 76.25 327.65 85.5 338.8 92.3 349.9 99.1 367.0 103.05 L355.4 102.25 333.3 103.1 Q322.05 104.55 320.0 110.5 318.7 115.4 321.35 120.55 324.0 125.7 333.9 132.75 326.7 128.35 319.15 127.35 311.55 126.4 309.9 130.0 308.2 133.65 318.75 143.0 314.1 139.55 311.3 141.85 308.45 144.15 306.4 147.6 304.35 151.0 301.95 150.9 299.55 150.75 295.7 142.45 285.8 123.25 276.75 122.3 267.7 121.4 263.1 128.2 258.55 135.05 262.15 139.2 249.25 142.45 236.65 137.8 224.05 133.15 211.0 127.1 197.9 121.05 183.5 120.15 169.1 120.35 156.0 126.4 142.95 132.5 130.35 137.45 117.8 142.4 104.85 139.2 108.45 135.05 103.9 128.2 99.35 121.4 90.3 122.3 81.25 123.25 71.35 142.45 67.5 150.75 65.1 150.9 62.65 151.0 60.6 147.6 58.55 144.15 55.75 141.85 52.95 139.55 48.25 143.0 58.8 133.65 57.15 130.0 55.5 126.4 47.9 127.35 40.3 128.35 33.1 132.75 43.0 125.7 45.65 120.55 48.3 115.4 47.05 110.5 45.0 104.55 33.7 103.1 L11.65 102.25 0.05 103.05 Q17.1 99.1 28.25 92.3 39.4 85.5 37.4 76.25 35.35 67.0 13.05 55.75 27.25 55.75 32.2 52.9 37.15 50.05 37.6 46.9 39.0 43.4 37.55 29.95 36.1 16.5 25.65 0.0 30.75 6.95 49.85 19.65 69.0 32.35 102.35 43.0 135.7 53.6 183.5 54.25 231.3 53.6 264.65 43.0 298.05 32.35 317.15 19.65 336.3 6.95 341.35 0.0 330.9 16.5 329.45 29.95 328.05 43.4 329.4 46.9" fill="#333333" fill-opacity="0.39607844" fill-rule="evenodd" stroke="none"/>
    </g>
    <g id="shape2" transform="matrix(1.0, 0.0, 0.0, 1.0, 189.9, 50.25)">
      <path d="M26.05 66.55 Q30.5 67.9 34.85 69.75 47.9 75.35 60.45 79.7 73.0 84.0 85.7 81.0 81.9 77.15 86.0 70.8 90.1 64.45 99.1 65.35 108.15 66.2 119.2 84.0 125.15 93.9 127.7 91.55 130.3 89.25 133.0 84.95 135.75 80.6 142.2 84.5 130.95 75.85 132.25 72.5 133.6 69.1 141.15 70.0 148.7 70.9 156.2 75.0 145.75 68.45 142.65 63.7 139.6 58.95 140.4 54.4 141.85 48.9 152.6 47.55 L173.85 46.75 185.15 47.5 Q168.25 43.85 156.9 37.55 145.5 31.25 146.45 22.65 147.35 14.1 167.4 3.65 154.1 3.65 149.2 1.0 144.3 -1.6 143.6 -4.5 142.05 -7.2 142.55 -15.75 143.05 -24.3 151.2 -39.0 147.15 -32.75 130.25 -23.1 113.35 -13.5 82.85 -5.8 52.4 1.85 7.7 2.3 -37.0 1.85 -67.45 -5.85 -97.95 -13.5 -114.85 -23.1 -131.75 -32.75 -135.8 -39.0 -127.65 -24.3 -127.15 -15.75 -126.65 -7.2 -128.2 -4.5 -128.9 -1.6 -133.8 1.0 -138.7 3.65 -152.0 3.65 -131.95 14.1 -131.05 22.65 -130.1 31.25 -141.5 37.55 -152.85 43.85 -169.7 47.5 L-158.45 46.75 -137.2 47.55 Q-126.45 48.9 -125.0 54.4 -124.15 58.95 -127.25 63.7 -130.35 68.45 -140.8 75.0 -133.3 70.9 -125.75 70.0 -118.15 69.1 -116.85 72.5 -115.55 75.85 -126.8 84.5 -120.35 80.6 -117.6 84.95 -114.9 89.25 -112.3 91.55 -109.75 93.9 -103.8 84.0 -92.75 66.2 -83.7 65.35 -74.7 64.45 -70.6 70.8 -66.5 77.15 -70.3 81.0 -57.6 83.95 -45.05 79.35 -32.5 74.75 -19.45 69.15 L-16.45 67.95 -15.25 70.75 -24.9 74.9 Q-34.5 78.9 -44.4 82.25 -60.75 87.9 -76.85 82.3 -74.65 81.65 -73.65 79.55 -69.8 71.35 -79.2 69.15 -84.8 67.8 -88.9 71.75 -99.15 81.65 -108.05 93.0 -109.5 94.85 -111.5 94.1 -117.75 91.55 -121.65 85.6 L-140.75 91.2 -133.35 85.95 Q-125.35 80.7 -119.9 73.3 L-123.3 73.15 Q-141.6 76.25 -158.25 85.05 -151.05 80.3 -144.4 74.9 -139.25 70.6 -133.75 66.75 -127.55 62.5 -127.7 55.5 -131.95 52.2 -137.2 51.5 -163.5 49.0 -189.9 50.4 -181.5 48.25 -172.95 46.6 -150.55 42.0 -134.9 26.3 -134.35 25.8 -134.6 25.4 -143.6 9.15 -160.9 1.1 -147.0 1.1 -134.3 -4.1 -129.45 -6.2 -130.15 -11.5 -132.95 -32.35 -144.3 -50.25 -108.3 -18.0 -60.9 -8.1 -23.0 0.0 15.8 -0.1 63.95 -0.25 108.45 -18.25 136.7 -29.7 159.25 -50.25 155.9 -43.75 152.2 -37.4 143.85 -23.0 146.9 -7.35 147.2 -5.8 148.3 -5.2 161.1 2.0 176.15 0.95 160.9 7.75 151.7 21.45 150.45 23.25 150.3 25.35 150.05 29.0 153.5 31.2 177.0 46.15 204.9 50.4 186.8 49.5 168.8 49.6 154.8 49.7 142.7 55.5 L143.8 59.6 Q144.45 61.55 145.8 63.0 157.9 75.8 173.55 85.15 L171.05 83.85 Q153.95 74.35 134.9 73.3 L135.85 74.7 Q144.85 84.05 155.85 91.2 L137.0 85.65 Q135.25 87.05 134.15 88.8 130.6 94.85 124.7 93.8 122.8 93.45 122.0 92.05 114.05 78.65 101.05 70.4 94.5 66.3 89.4 72.2 84.15 78.3 91.9 82.3 79.05 86.85 65.85 83.3 45.0 77.55 25.05 69.25 L26.05 66.55 M-12.15 46.5 Q-24.0 44.8 -32.9 51.75 -26.25 31.65 -32.9 11.65 -29.95 14.85 -25.6 15.15 -20.9 15.7 -17.5 12.4 -17.1 27.55 -20.25 42.65 L-18.3 41.65 Q-10.6 38.55 -2.55 40.15 -6.6 41.5 -10.2 44.5 L-12.15 46.5 M8.35 39.2 Q16.4 27.25 17.85 13.6 L19.25 14.95 Q26.5 20.0 31.85 13.2 36.05 34.25 49.25 51.6 L44.95 48.55 Q38.65 44.6 35.65 50.4 35.35 48.25 34.3 46.5 33.4 44.95 31.8 44.0 L33.65 42.75 32.95 42.25 Q24.75 38.05 16.5 42.0 12.75 39.8 8.35 39.2 M82.0 20.1 Q82.3 20.5 82.9 20.65 74.9 23.3 68.9 17.15 L67.9 18.5 Q66.35 21.35 63.15 21.6 L62.25 21.5 Q64.55 28.45 70.9 26.05 82.5 30.0 87.35 41.45 L68.15 55.7 Q61.9 44.55 49.6 47.55 55.4 41.6 49.7 36.45 60.4 37.6 67.65 45.45 70.1 41.55 74.8 40.55 72.25 31.65 64.3 34.95 55.05 30.75 49.8 21.9 60.1 16.9 68.15 8.6 74.75 17.6 82.7 10.4 78.95 15.75 82.0 20.1 M126.0 26.85 Q126.0 36.2 127.0 46.35 128.0 57.2 129.95 63.25 125.8 53.0 122.1 52.55 118.45 51.4 117.3 59.85 116.55 55.25 116.2 49.85 115.85 44.45 115.8 39.85 115.75 30.55 117.3 30.75 109.85 26.7 102.2 30.25 103.7 30.15 103.7 38.8 103.7 42.95 103.3 47.75 102.9 52.55 102.2 56.3 100.95 48.4 97.4 48.05 93.8 47.65 89.55 53.75 91.5 50.3 92.5 42.1 93.5 34.35 93.5 26.5 93.45 18.55 92.45 11.95 91.45 5.35 89.55 2.6 93.75 7.45 97.45 6.95 101.1 6.4 102.2 0.9 103.65 7.3 103.75 14.3 103.8 21.3 102.2 21.0 105.5 23.2 109.75 23.15 114.05 23.1 117.3 20.65 115.7 21.15 115.8 13.65 115.85 6.1 117.3 -1.45 118.75 4.85 122.3 4.2 125.8 4.05 129.95 -3.65 128.0 0.75 127.0 9.45 126.0 17.6 126.0 26.85 M28.05 34.95 L30.55 35.8 Q26.9 30.1 24.85 23.6 23.2 30.3 19.15 35.65 23.45 33.8 28.05 34.95 M-89.05 15.2 Q-92.0 14.3 -94.75 10.9 -99.25 16.9 -101.4 15.3 -99.2 23.7 -92.4 20.1 -87.85 22.65 -83.95 25.95 -80.05 29.25 -76.3 36.75 -79.9 39.45 -84.35 43.9 -88.8 48.4 -95.5 57.65 -100.5 50.75 -104.3 49.0 -108.1 47.3 -114.05 52.3 -110.5 45.45 -110.9 41.75 -111.25 38.0 -114.05 37.15 -107.15 37.8 -103.0 38.65 -98.9 39.55 -96.0 42.95 -94.0 38.95 -92.0 37.7 -90.0 36.5 -88.65 36.35 -91.1 28.0 -96.65 31.2 -101.1 29.1 -105.55 26.05 -109.95 22.95 -113.85 14.75 -107.35 10.7 -95.5 0.6 -92.4 6.95 -89.2 7.95 -86.05 8.95 -80.95 5.8 -86.3 13.75 -80.95 15.25 -86.1 16.15 -89.05 15.2 M-50.1 22.1 L-55.55 19.55 Q-55.6 20.0 -56.0 20.15 -58.75 20.85 -61.0 19.0 -58.15 25.1 -61.0 31.15 -59.75 30.3 -58.4 30.05 L-56.05 30.2 -55.6 31.1 Q-50.35 29.75 -47.2 25.3 L-50.1 22.1 M-56.65 12.55 Q-55.2 11.85 -54.65 10.3 L-34.5 24.65 Q-41.65 35.8 -54.65 38.05 -54.6 36.35 -56.1 35.75 -59.0 34.95 -59.75 38.2 -57.5 46.65 -61.0 54.8 -63.45 47.9 -70.3 52.7 -72.5 54.2 -73.65 56.75 -65.2 32.7 -73.65 8.6 -66.1 17.5 -56.65 12.55" fill="#ffffff" fill-rule="evenodd" stroke="none"/>
      <path d="M-16.45 67.95 L-19.45 69.15 Q-32.5 74.75 -45.05 79.35 -57.6 83.95 -70.3 81.0 -66.5 77.15 -70.6 70.8 -74.7 64.45 -83.7 65.35 -92.75 66.2 -103.8 84.0 -109.75 93.9 -112.3 91.55 -114.9 89.25 -117.6 84.95 -120.35 80.6 -126.8 84.5 -115.55 75.85 -116.85 72.5 -118.15 69.1 -125.75 70.0 -133.3 70.9 -140.8 75.0 -130.35 68.45 -127.25 63.7 -124.15 58.95 -125.0 54.4 -126.45 48.9 -137.2 47.55 L-158.45 46.75 -169.7 47.5 Q-152.85 43.85 -141.5 37.55 -130.1 31.25 -131.05 22.65 -131.95 14.1 -152.0 3.65 -138.7 3.65 -133.8 1.0 -128.9 -1.6 -128.2 -4.5 -126.65 -7.2 -127.15 -15.75 -127.65 -24.3 -135.8 -39.0 -131.75 -32.75 -114.85 -23.1 -97.95 -13.5 -67.45 -5.85 -37.0 1.85 7.7 2.3 52.4 1.85 82.85 -5.8 113.35 -13.5 130.25 -23.1 147.15 -32.75 151.2 -39.0 143.05 -24.3 142.55 -15.75 142.05 -7.2 143.6 -4.5 144.3 -1.6 149.2 1.0 154.1 3.65 167.4 3.65 147.35 14.1 146.45 22.65 145.5 31.25 156.9 37.55 168.25 43.85 185.15 47.5 L173.85 46.75 152.6 47.55 Q141.85 48.9 140.4 54.4 139.6 58.95 142.65 63.7 145.75 68.45 156.2 75.0 148.7 70.9 141.15 70.0 133.6 69.1 132.25 72.5 130.95 75.85 142.2 84.5 135.75 80.6 133.0 84.95 130.3 89.25 127.7 91.55 125.15 93.9 119.2 84.0 108.15 66.2 99.1 65.35 90.1 64.45 86.0 70.8 81.9 77.15 85.7 81.0 73.0 84.0 60.45 79.7 47.9 75.35 34.85 69.75 30.5 67.9 26.05 66.55 L26.55 64.0 Q28.5 49.75 16.5 42.0 24.75 38.05 32.95 42.25 L33.65 42.75 31.8 44.0 Q33.4 44.95 34.3 46.5 35.35 48.25 35.65 50.4 38.65 44.6 44.95 48.55 L49.25 51.6 Q36.05 34.25 31.85 13.2 26.5 20.0 19.25 14.95 L17.85 13.6 Q16.4 27.25 8.35 39.2 L5.95 38.95 Q1.45 38.75 -2.55 40.15 -10.6 38.55 -18.3 41.65 L-20.25 42.65 Q-17.1 27.55 -17.5 12.4 -20.9 15.7 -25.6 15.15 -29.95 14.85 -32.9 11.65 -26.25 31.65 -32.9 51.75 -24.0 44.8 -12.15 46.5 L-14.35 49.55 -18.4 46.6 -21.0 49.15 Q-28.15 57.2 -17.6 59.9 L-16.45 67.95 M126.0 26.85 Q126.0 17.6 127.0 9.45 128.0 0.75 129.95 -3.65 125.8 4.05 122.3 4.2 118.75 4.85 117.3 -1.45 115.85 6.1 115.8 13.65 115.7 21.15 117.3 20.65 114.05 23.1 109.75 23.15 105.5 23.2 102.2 21.0 103.8 21.3 103.75 14.3 103.65 7.3 102.2 0.9 101.1 6.4 97.45 6.95 93.75 7.45 89.55 2.6 91.45 5.35 92.45 11.95 93.45 18.55 93.5 26.5 93.5 34.35 92.5 42.1 91.5 50.3 89.55 53.75 93.8 47.65 97.4 48.05 100.95 48.4 102.2 56.3 102.9 52.55 103.3 47.75 103.7 42.95 103.7 38.8 103.7 30.15 102.2 30.25 109.85 26.7 117.3 30.75 115.75 30.55 115.8 39.85 115.85 44.45 116.2 49.85 116.55 55.25 117.3 59.85 118.45 51.4 122.1 52.55 125.8 53.0 129.95 63.25 128.0 57.2 127.0 46.35 126.0 36.2 126.0 26.85 M82.0 20.1 Q78.95 15.75 82.7 10.4 74.75 17.6 68.15 8.6 60.1 16.9 49.8 21.9 55.05 30.75 64.3 34.95 72.25 31.65 74.8 40.55 70.1 41.55 67.65 45.45 60.4 37.6 49.7 36.45 55.4 41.6 49.6 47.55 61.9 44.55 68.15 55.7 L87.35 41.45 Q82.5 30.0 70.9 26.05 64.55 28.45 62.25 21.5 L63.15 21.6 Q66.35 21.35 67.9 18.5 L68.9 17.15 Q74.9 23.3 82.9 20.65 82.3 20.5 82.0 20.1 M28.05 34.95 Q23.45 33.8 19.15 35.65 23.2 30.3 24.85 23.6 26.9 30.1 30.55 35.8 L28.05 34.95 M-56.65 12.55 Q-66.1 17.5 -73.65 8.6 -65.2 32.7 -73.65 56.75 -72.5 54.2 -70.3 52.7 -63.45 47.9 -61.0 54.8 -57.5 46.65 -59.75 38.2 -59.0 34.95 -56.1 35.75 -54.6 36.35 -54.65 38.05 -41.65 35.8 -34.5 24.65 L-54.65 10.3 Q-55.2 11.85 -56.65 12.55 M-50.1 22.1 L-47.2 25.3 Q-50.35 29.75 -55.6 31.1 L-56.05 30.2 -58.4 30.05 Q-59.75 30.3 -61.0 31.15 -58.15 25.1 -61.0 19.0 -58.75 20.85 -56.0 20.15 -55.6 20.0 -55.55 19.55 L-50.1 22.1 M-89.05 15.2 Q-86.1 16.15 -80.95 15.25 -86.3 13.75 -80.95 5.8 -86.05 8.95 -89.2 7.95 -92.4 6.95 -95.5 0.6 -107.35 10.7 -113.85 14.75 -109.95 22.95 -105.55 26.05 -101.1 29.1 -96.65 31.2 -91.1 28.0 -88.65 36.35 -90.0 36.5 -92.0 37.7 -94.0 38.95 -96.0 42.95 -98.9 39.55 -103.0 38.65 -107.15 37.8 -114.05 37.15 -111.25 38.0 -110.9 41.75 -110.5 45.45 -114.05 52.3 -108.1 47.3 -104.3 49.0 -100.5 50.75 -95.5 57.65 -88.8 48.4 -84.35 43.9 -79.9 39.45 -76.3 36.75 -80.05 29.25 -83.95 25.95 -87.85 22.65 -92.4 20.1 -99.2 23.7 -101.4 15.3 -99.25 16.9 -94.75 10.9 -92.0 14.3 -89.05 15.2" fill="#663399" fill-rule="evenodd" stroke="none"/>
    </g>
    <g id="sprite0" transform="matrix(1.0, 0.0, 0.0, 1.0, 0.0, 0.0)">
      <use ffdec:characterId="40" height="42.95" transform="matrix(1.0, 0.0, 0.0, 1.0, 0.0, 0.0)" width="50.7" xlink:href="#shape3"/>
    </g>
    <g id="shape3" transform="matrix(1.0, 0.0, 0.0, 1.0, 0.0, 0.0)">
      <path d="M9.4 18.9 Q8.65 37.95 27.75 39.3 34.4 39.85 39.45 35.7 53.25 24.6 43.25 9.65 40.15 5.05 34.65 3.9 18.1 0.2 10.45 15.35 L5.55 11.2 3.25 13.65 Q1.4 15.8 3.5 17.3 7.8 18.7 9.4 18.9 M32.25 0.3 Q36.65 0.9 40.4 3.1 52.4 10.85 50.45 25.1 L49.95 27.65 48.95 30.35 Q38.55 47.95 19.05 40.95 12.25 38.4 8.65 31.85 L7.45 29.05 6.3 21.0 Q-4.25 18.3 2.9 10.25 L5.5 7.7 9.55 10.65 11.75 7.6 13.7 5.6 Q17.3 2.6 21.35 1.25 25.35 -0.15 29.85 0.05 L32.25 0.3" fill="#000000" fill-rule="evenodd" stroke="none"/>
      <path d="M10.45 15.35 Q18.1 0.2 34.65 3.9 40.15 5.05 43.25 9.65 53.25 24.6 39.45 35.7 34.4 39.85 27.75 39.3 8.65 37.95 9.4 18.9 L10.4 18.75 11.3 16.05 10.45 15.35 M35.25 28.2 Q32.35 35.4 24.8 37.15 L20.95 37.75 Q39.6 42.1 44.85 23.85 45.45 21.85 45.1 19.6 42.6 4.75 27.2 4.15 41.6 12.35 35.25 28.2" fill="#ff7f00" fill-rule="evenodd" stroke="none"/>
      <path d="M10.45 15.35 L11.3 16.05 10.4 18.75 9.4 18.9 Q7.8 18.7 3.5 17.3 1.4 15.8 3.25 13.65 L5.55 11.2 10.45 15.35 M35.25 28.2 Q41.6 12.35 27.2 4.15 42.6 4.75 45.1 19.6 45.45 21.85 44.85 23.85 39.6 42.1 20.95 37.75 L24.8 37.15 Q32.35 35.4 35.25 28.2" fill="#fc4128" fill-rule="evenodd" stroke="none"/>
    </g>
  </defs>
</svg>
